<svg xmlns="http://www.w3.org/2000/svg"  viewBox="0 0 48 48" width="48px" height="48px"><path fill="#38b47b" d="M25.978,16.6c0.004-1.579-0.137-4.313,0.092-5.875s0.905-3.145,2.206-4.04	c1.301-0.895,3.303-0.852,4.286,0.384c0.685,0.862,0.747,2.048,0.78,3.149c0.094,3.214,0.187,6.455-0.377,9.621	c-0.221,1.24-0.631,2.587-1.712,3.233c-1.46,0.872-3.458-0.063-4.329-1.523S26.003,18.3,25.978,16.6z"/><path fill="#16b7b8" d="M23.574,13.285c0.172-1.668,0.326-3.439-0.42-4.941c-0.362-0.728-0.926-1.354-1.614-1.788	c-0.362-0.229-0.766-0.407-1.193-0.438c-0.503-0.036-0.998,0.135-1.453,0.35c-1.177,0.556-2.239,1.48-2.67,2.709	c-0.431,1.228-0.089,2.767,0.995,3.488c0.424,0.282,0.925,0.426,1.425,0.524c0.878,0.172,1.775,0.216,2.668,0.259	C21.765,13.469,23.12,13.263,23.574,13.285z"/><path fill="#38b47b" d="M35.551,22.968c-0.42-1.986,0.126-4.154,1.437-5.705c0.161-0.191,0.337-0.375,0.553-0.5	c0.418-0.241,0.933-0.23,1.411-0.162c1.02,0.146,2.03,0.54,2.764,1.263c0.734,0.723,1.152,1.805,0.929,2.811	c-0.279,1.261-1.487,2.147-2.745,2.438C38.642,23.405,36.828,23.159,35.551,22.968z"/><path fill="#16b7b8" d="M10.369,15.863c1.732-0.546,3.97-0.358,5.78-0.508c1.586-0.131,3.236-0.097,4.694,0.54	c1.458,0.637,2.69,1.988,2.795,3.577c0.034,0.518-0.054,1.052-0.307,1.505c-0.646,1.155-2.129,1.499-3.446,1.633	c-3.237,0.329-6.502,0.095-9.748-0.139c-0.457-0.033-0.922-0.068-1.351-0.229c-1.348-0.508-1.963-2.238-1.516-3.607	C7.716,17.265,8.993,16.289,10.369,15.863z"/><path fill="#f26322" d="M14.321,25.602c0.345,1.384,0.116,2.84-0.159,4.24c-0.066,0.336-0.136,0.675-0.291,0.981	c-0.35,0.69-1.072,1.097-1.753,1.465c-0.359,0.194-0.725,0.39-1.124,0.474c-0.59,0.125-1.211-0.006-1.762-0.251	c-1.222-0.543-2.18-1.691-2.403-3.009c-0.224-1.318,0.336-2.761,1.443-3.511c0.57-0.386,1.245-0.583,1.916-0.735	C11.231,25.018,13.417,25.027,14.321,25.602z"/><path fill="#febf10" d="M26.526,34.839c0.009,1.454-0.778,3.4-0.505,4.828c0.273,1.428,1.276,2.87,2.722,3.024	c0.528,0.056,1.06-0.064,1.562-0.236c1.106-0.379,2.171-1.071,2.667-2.129c0.176-0.375,0.273-0.781,0.357-1.187	c0.212-1.024,0.334-2.138-0.131-3.076c-0.547-1.104-1.812-1.705-3.04-1.797C28.929,34.175,27.713,34.509,26.526,34.839z"/><path fill="#febf10" d="M34.279,25.461c-0.971,0.098-1.95,0.064-2.925,0.096c-1.156,0.038-2.35,0.085-3.396,0.579	c-1.046,0.494-1.914,1.559-1.805,2.711c0.063,0.667,0.434,1.262,0.813,1.815c0.349,0.509,0.725,1.018,1.241,1.355	c0.826,0.539,1.875,0.558,2.861,0.558c2.41,0.002,4.82,0.004,7.229,0.006c1.658,0.001,3.614-0.155,4.48-1.568	c0.657-1.071,0.389-2.483-0.188-3.599c-0.277-0.535-0.632-1.049-1.137-1.377c-0.494-0.32-1.091-0.436-1.675-0.517	C37.96,25.271,36.105,25.278,34.279,25.461z"/><path fill="#f26322" d="M16.521,33.901c0.051-1.624-0.114-3.253,0.134-4.859c0.245-1.583,0.879-3.356,2.386-3.899	c1.201-0.433,2.6,0.129,3.426,1.104c0.825,0.975,1.161,2.278,1.263,3.551c0.103,1.273-0.003,2.554,0.062,3.829	c0.087,1.717,0.481,3.436,0.258,5.141c-0.223,1.705-1.292,3.476-2.983,3.788c-1.8,0.331-3.526-1.175-4.098-2.914	C16.397,37.904,16.464,35.73,16.521,33.901z"/><path d="M26.478,16.6c0-2.243-0.329-4.679,0.319-6.86c0.343-1.154,1.029-2.334,2.156-2.87c0.949-0.452,2.242-0.438,3.038,0.315 c0.968,0.915,0.837,2.545,0.871,3.758c0.043,1.528,0.075,3.058,0.024,4.587c-0.05,1.515-0.162,3.048-0.473,4.534 c-0.231,1.101-0.679,2.462-1.903,2.783c-1.223,0.32-2.54-0.534-3.156-1.548C26.509,19.904,26.502,18.177,26.478,16.6 c-0.01-0.643-1.01-0.645-1,0c0.043,2.818,0.494,6.633,3.9,7.248c3.435,0.621,4.096-3.439,4.35-5.917 c0.197-1.92,0.203-3.854,0.164-5.782c-0.031-1.513,0.125-3.26-0.511-4.675c-0.552-1.228-1.762-1.906-3.088-1.904 c-1.365,0.002-2.578,0.691-3.399,1.761c-1.986,2.589-1.416,6.229-1.417,9.269C25.478,17.243,26.478,17.244,26.478,16.6z"/><path d="M24.074,13.285c0.192-1.875,0.343-3.931-0.716-5.598c-0.484-0.761-1.19-1.435-2.018-1.807 c-0.941-0.423-1.846-0.254-2.748,0.18c-1.506,0.726-2.836,2.078-3.025,3.801c-0.085,0.777,0.073,1.604,0.481,2.275 c0.457,0.753,1.188,1.207,2.027,1.433c1.06,0.286,2.251,0.387,3.347,0.379c0.719-0.006,1.433-0.184,2.152-0.163 c0.644,0.019,0.643-0.981,0-1c-0.549-0.016-1.104,0.084-1.65,0.132c-0.719,0.063-1.446,0-2.163-0.07 c-0.784-0.077-1.724-0.176-2.371-0.671c-0.475-0.364-0.749-0.958-0.826-1.541c-0.186-1.416,0.753-2.637,1.894-3.357 c0.614-0.387,1.389-0.803,2.134-0.612c0.708,0.182,1.353,0.753,1.772,1.334c1.1,1.525,0.89,3.524,0.71,5.286 C23.008,13.924,24.009,13.92,24.074,13.285z"/><path d="M36.033,22.835c-0.267-1.322-0.09-2.738,0.5-3.952c0.273-0.561,0.637-1.211,1.137-1.604 c0.507-0.398,1.316-0.198,1.881-0.045c1.274,0.344,2.523,1.27,2.647,2.681c0.111,1.265-0.915,2.232-2.035,2.607 c-1.41,0.471-3.044,0.178-4.478-0.035c-0.269-0.04-0.534,0.067-0.615,0.349c-0.068,0.235,0.083,0.575,0.349,0.615 c1.581,0.235,3.347,0.548,4.912,0.066c1.48-0.456,2.795-1.652,2.873-3.275c0.084-1.757-1.247-3.162-2.787-3.774 c-0.758-0.301-1.676-0.507-2.49-0.364c-0.847,0.149-1.396,0.86-1.841,1.539c-1.048,1.6-1.394,3.592-1.016,5.458 C35.196,23.731,36.16,23.464,36.033,22.835z"/><path d="M10.502,16.345c1.234-0.367,2.523-0.386,3.8-0.415c1.195-0.027,2.395-0.169,3.59-0.132 c2.207,0.068,5.257,1.193,5.253,3.868c-0.004,2.753-4.068,2.563-5.937,2.599c-1.464,0.028-2.929-0.027-4.391-0.113 c-0.65-0.038-1.301-0.083-1.95-0.129c-0.69-0.049-1.49-0.01-2.116-0.346c-0.994-0.533-1.334-1.89-0.999-2.91 C8.155,17.537,9.321,16.732,10.502,16.345c0.609-0.199,0.348-1.165-0.266-0.964c-2.366,0.774-4.438,3.129-3.282,5.705 c0.561,1.251,1.646,1.748,2.954,1.866c1.776,0.161,3.567,0.261,5.35,0.304c1.698,0.041,3.421,0.025,5.106-0.206 c1.217-0.167,2.523-0.548,3.26-1.608c1.714-2.463-0.753-5.37-3.051-6.19c-1.704-0.608-3.459-0.423-5.224-0.352 c-1.709,0.069-3.457-0.014-5.114,0.479C9.62,15.564,9.882,16.53,10.502,16.345z"/><path d="M13.839,25.735c0.209,0.887,0.184,1.803,0.062,2.702c-0.058,0.426-0.137,0.85-0.221,1.271 c-0.08,0.4-0.159,0.811-0.414,1.142c-0.441,0.572-1.241,0.966-1.886,1.254c-0.777,0.347-1.575,0.187-2.293-0.229 c-1.183-0.684-1.992-2.043-1.775-3.429c0.104-0.664,0.41-1.295,0.895-1.763c0.568-0.549,1.36-0.782,2.113-0.947 c0.614-0.134,1.258-0.147,1.884-0.119c0.62,0.028,1.322,0.087,1.865,0.415c0.552,0.334,1.055-0.531,0.505-0.863 c-0.626-0.378-1.397-0.483-2.112-0.536c-0.739-0.054-1.496-0.031-2.227,0.103c-0.916,0.167-1.856,0.487-2.575,1.096 c-0.637,0.54-1.085,1.324-1.269,2.136c-0.396,1.748,0.392,3.492,1.819,4.527c0.753,0.546,1.72,0.905,2.658,0.788 c0.918-0.114,1.885-0.691,2.606-1.255c0.409-0.319,0.739-0.706,0.935-1.19c0.219-0.539,0.297-1.139,0.392-1.71 c0.202-1.22,0.29-2.445,0.004-3.66C14.656,24.843,13.691,25.108,13.839,25.735z"/><path d="M26.026,34.839c-0.014,1.785-0.894,3.519-0.407,5.308c0.443,1.625,1.783,3.174,3.599,3.051 c1.798-0.122,3.728-1.291,4.354-3.026c0.631-1.747,0.787-4.1-0.779-5.398c-1.845-1.53-4.298-1.001-6.4-0.417 c-0.619,0.172-0.356,1.137,0.266,0.964c1.585-0.44,3.416-0.965,4.968-0.133c0.67,0.359,1.153,0.92,1.321,1.672 c0.178,0.798,0.019,1.668-0.167,2.45c-0.185,0.773-0.535,1.411-1.168,1.905c-0.606,0.473-1.379,0.811-2.133,0.947 c-1.536,0.277-2.589-1.037-2.925-2.396c-0.399-1.614,0.46-3.303,0.472-4.927C27.031,34.195,26.031,34.194,26.026,34.839z"/><path d="M34.279,24.961c-2.677,0.24-6.836-0.551-8.321,2.42c-0.645,1.289-0.131,2.518,0.634,3.618 c0.835,1.201,1.803,1.891,3.28,2.035c1.706,0.166,3.471,0.043,5.184,0.045c1.569,0.001,3.177,0.105,4.74-0.065 c1.153-0.125,2.365-0.446,3.14-1.372c0.898-1.074,0.862-2.562,0.383-3.812c-0.583-1.522-1.583-2.503-3.214-2.762 C38.181,24.761,36.215,24.775,34.279,24.961c-0.635,0.061-0.641,1.062,0,1c1.353-0.13,2.712-0.176,4.069-0.085 c1.262,0.085,2.725,0.12,3.504,1.269c0.638,0.94,1.127,2.352,0.589,3.444c-0.471,0.955-1.574,1.292-2.556,1.415 c-1.181,0.148-2.396,0.076-3.582,0.075c-1.413-0.001-2.825-0.002-4.238-0.003c-1.196-0.001-2.703,0.193-3.718-0.576 c-0.817-0.618-1.856-2.048-1.678-3.123c0.234-1.413,1.765-2.034,3.013-2.208c1.521-0.212,3.07-0.071,4.598-0.208 C34.915,25.904,34.921,24.904,34.279,24.961z"/><path d="M17.021,33.901c0.039-1.571-0.118-3.165,0.116-4.726c0.154-1.026,0.448-2.163,1.168-2.945 c0.877-0.952,2.226-0.901,3.232-0.17c1.048,0.761,1.493,2.099,1.652,3.334c0.19,1.48,0.02,2.981,0.116,4.466 c0.09,1.403,0.366,2.798,0.304,4.209c-0.095,2.14-1.769,5.043-4.284,3.706C16.606,40.33,16.941,36.493,17.021,33.901 c0.02-0.644-0.98-0.643-1,0c-0.09,2.89-0.291,6.566,2.355,8.459c1.047,0.749,2.397,0.975,3.586,0.429 c1.168-0.536,1.943-1.679,2.336-2.869c0.522-1.578,0.286-3.272,0.114-4.888c-0.193-1.811-0.02-3.628-0.201-5.436 c-0.146-1.461-0.591-3.01-1.71-4.032c-0.998-0.911-2.459-1.368-3.752-0.841c-1.364,0.556-2.068,1.974-2.406,3.327 c-0.479,1.919-0.274,3.896-0.323,5.85C16.005,34.545,17.005,34.544,17.021,33.901z"/></svg>